<svg xmlns="http://www.w3.org/2000/svg" version="1.1" xmlns:xlink="http://www.w3.org/1999/xlink" xmlns:svgjs="http://svgjs.dev/svgjs" width="1500" height="1687" viewBox="0 0 1500 1687"><g transform="matrix(1,0,0,1,0.00011015625000254659,0)"><svg viewBox="0 0 320 360" data-background-color="#632240" preserveAspectRatio="xMidYMid meet" height="1687" width="1500" xmlns="http://www.w3.org/2000/svg" xmlns:xlink="http://www.w3.org/1999/xlink"><g id="tight-bounds" transform="matrix(1,0,0,1,0.000023499999997511622,0)"><svg viewBox="0 0 320 360" height="360" width="320"><g><svg></svg></g><g><svg viewBox="0 0 320 360" height="360" width="320"><g><path transform="translate(-74.99272,-51.79039) scale(4.65793,4.65793)" d="M20.6 59.9l0.8 1-0.4-1.3c-0.1-0.6-0.8 0.1-0.4 0.3M21.5 59.3c0.3 0.5 0.6 1 0.6 1.5 0 0.7 0.6 1 1.1 1.2-0.7-0.8-1.1-3-1.7-2.7M59.9 16.9c1.7 0 3.3-0.2 5.1 0.2 4.4 1.1 8.1 3.3 10.6 6.4l7 11.2c0.3 2.8 0.9 5.9 0.8 9.3 0.7 0 0.6-1 1.4-1.2-0.8 2-1.2 4.5-1.4 7.4-0.5-1.6 0-4 0.1-5.3-0.7 1.1-1.1 0.3-1.1-0.2 0.1-0.8-0.3-0.7-0.6-1-1.1-1-1.8-2.1-2.6-3.8 0.5-1.3 0.6-3.2-1-4.2-0.5-0.3-1.1-0.8-1.4-1.6-0.4-1.1-1.1-2.4-0.9-4.1 0.1-0.5-1.5 1.1-2.4 0.4-3.9-2.7-7.8-5.8-12.5-8.4-2.5 0-4.3-0.9-5.2-2-0.8-1-0.2-2.3 1-2.4 0.7 0 1.5-0.2 2.1 0.2 0.1-0.4 0.5-0.9 1-0.9M50 14.6l0.2 0.1c1 0.2 1.5 1.6 2.6 1.1 0 0.7 0.1 1.4-0.1 1.9-0.3 0.8-1.2 0.8-1.9 0.8-6.7-0.4-10.6 2.4-14.7 4.8-1.1 0.7-2.3 1.2-3.2 2.1-4.3 4-9 7.7-10.1 15.1l-0.9 8.2c-0.1 0.9-1.1 1.8-0.9 2.9l0.7 4.9c-0.7-0.7-1.1 0.2-0.9 0.6 0.1 0.3 0.5 1.3 1.1 0.4 0.8 1.5 1.6 4.4 2.7 5.7 3.4 4 7.8 7.6 11.4 11.2 0.9-0.2 1.6-0.2 1.8-0.8 0.3 0.6-0.3 1.2-0.8 1.3 1.6 1 3.4 1.9 5.8 2.1 3.1 0.2 6 0.7 8.7 1.4 1.4-0.4 2.8-0.6 4.3-0.7 0.5 0 0.8-0.8 1.4-1l0.1-1c0.6 0.9 0.5-0.3 0.1-0.9 0.7 0.6 0.9 1.1 1.2 1.5 0-0.3 0.8-1.4 0.8-0.1l0.2-1.3c0.3-0.2 0.4 1.1 0.7 0.2 0.3-0.9 0.9-0.2 1.5-0.5-0.2 0.4-0.1 1.2 0.6 0.7l0.8-0.7c0.5 1.2 1.3 0.7 1.7 0.5 4.4-2.8 8.8-6.1 13-9.4l-0.1 1.3 0.5-1.6c0.5 0.5 0.9 0.1 1.1-0.2 0.6-1 1.4-2 2.7-2.9-1.6 4.3-3.5 7.7-5.9 10.5l-1 1.2c0 0.7-0.2 1.6-1 1.7-0.4 0.1-1.2-0.2-1.8 0.4-0.3 0.4 0.7 1.2-0.1 0.6-0.7-0.5-1.4 0-2.2 0.2-0.6 0.2 0.4 0.8 0.6 1.2 0.2 0.4 0.4 0.8 0.3 1.3l-1.1-1.2c-1.3 0.7-2.1 2-3.2 3-0.5 0.4-0.3 1.1-0.3 1.7-0.7 0-1.5-0.2-1.9 0.2-0.3 0.4-0.2 1-0.2 1.6-1-0.1-1.1-1.6-2-1.3-0.9 0.2-1.9 0.3-2.7 0.8 0.6 1.2-1 0.5-0.8 0.7-1.5-0.9-2.8-1.6-4.4-1-3.4-1.1-7.6-0.6-10.7-0.2 0-0.5 0.1-1-0.1-1.1-0.2 0.5-0.8 0.3-0.7 0.3-1.9-1.3-3.8-2.1-5.8-3.2-1.8 0.2-3.5-0.7-4-1.2-1.4-1.3-3-0.6-4.3-0.9-2.8-0.7-3.8-3.6-4.1-5.6-0.2-1-1-1.4-1.3-1.3-1.3-4.2-3.3-8-4.9-11.9-0.4-1-0.3-2-0.3-3.1 0.5 0.2 1 0.1 0.9-0.6-0.5-3.3-1.7-5.8-3-8.2 0.7-3.4 0.8-7.4 2.4-10.4 1.4-2.7 4-4.1 5.8-6.4 0.6-0.8 0.6-1.9 1.2-2.6 2-2 4-4.1 6.2-5.9 1-0.8 2.2 0 3.7-0.3 0.5-1.8 2.5-3.4 4.4-2.9 0.8 0.2 2.4-1.9 2.9-2.1 0.8-0.3 0.4 0.8 0.4 1.5 1.9-1.5 4.5-2.3 6.9-3.2" fill="#fed8e5" fill-rule="nonzero" stroke="none" stroke-width="1" stroke-linecap="butt" stroke-linejoin="miter" stroke-miterlimit="10" stroke-dasharray="" stroke-dashoffset="0" font-family="none" font-weight="none" font-size="none" text-anchor="none" style="mix-blend-mode: normal" data-fill-palette-color="tertiary"></path></g><g transform="matrix(1,0,0,1,64.00000000000001,113.62667357213098)"><svg viewBox="0 0 191.99999999999997 132.74665285573803" height="132.74665285573803" width="191.99999999999997"><g><svg viewBox="0 0 191.99999999999997 132.74665285573803" height="132.74665285573803" width="191.99999999999997"><g><svg viewBox="0 0 192.00000000000003 132.74665285573806" height="132.74665285573803" width="191.99999999999997"><g transform="matrix(1,0,0,1,0,87.35492219267987)"><svg viewBox="0 0 192.00000000000003 45.39173066305819" height="45.39173066305819" width="192.00000000000003"><g id="textblocktransform"><svg viewBox="0 0 192.00000000000003 45.39173066305819" height="45.39173066305819" width="192.00000000000003" id="textblock"><g><svg viewBox="0 0 192.00000000000003 31.17726657645467" height="31.17726657645467" width="192.00000000000003"><g transform="matrix(1,0,0,1,0,0)"><svg width="192.00000000000003" viewBox="2.2 -35.6 288.64 46.88" height="31.17726657645467" data-palette-color="#fed8e5"><path d="M13.96 0.61L13.96 0.61Q10.33 0.61 7.35-0.74 4.37-2.1 2.2-4.42L2.2-4.42 4.47-7.1Q6.27-5.13 8.79-4.03 11.3-2.93 14.01-2.93L14.01-2.93Q17.46-2.93 19.38-4.49 21.31-6.05 21.31-8.59L21.31-8.59Q21.31-10.4 20.56-11.49 19.8-12.57 18.51-13.29 17.21-14.01 15.6-14.72L15.6-14.72 10.72-16.89Q9.16-17.58 7.57-18.65 5.98-19.73 4.92-21.41 3.86-23.1 3.86-25.56L3.86-25.56Q3.86-28.15 5.22-30.15 6.59-32.15 8.97-33.31 11.35-34.47 14.36-34.47L14.36-34.47Q17.46-34.47 20-33.3 22.53-32.13 24.27-30.4L24.27-30.4 22.05-27.71Q20.51-29.17 18.55-30.04 16.6-30.91 14.36-30.91L14.36-30.91Q11.47-30.91 9.7-29.52 7.93-28.13 7.93-25.81L7.93-25.81Q7.93-24.15 8.79-23.07 9.64-22 10.94-21.3 12.23-20.61 13.55-20.04L13.55-20.04 18.38-17.97Q20.36-17.14 21.95-15.99 23.54-14.84 24.46-13.15 25.39-11.45 25.39-8.91L25.39-8.91Q25.39-6.25 24-4.09 22.61-1.93 20.06-0.66 17.5 0.61 13.96 0.61ZM37.45 0.61L37.45 0.61Q34.32 0.61 32.22-1.21 30.12-3.03 30.12-6.42L30.12-6.42Q30.12-10.52 33.85-12.72 37.57-14.92 45.6-15.82L45.6-15.82Q45.6-17.48 45.15-18.97 44.7-20.46 43.56-21.41 42.43-22.36 40.33-22.36L40.33-22.36Q38.11-22.36 36.17-21.51 34.23-20.65 32.76-19.73L32.76-19.73 31.22-22.36Q32.88-23.51 35.41-24.56 37.94-25.61 40.96-25.61L40.96-25.61Q45.53-25.61 47.54-22.8 49.56-20 49.56-15.41L49.56-15.41 49.56 0 46.26 0 45.94-3.03 45.8-3.03Q43.99-1.54 41.88-0.46 39.77 0.61 37.45 0.61ZM38.52-2.56L38.52-2.56Q40.4-2.56 42.05-3.44 43.7-4.32 45.6-5.96L45.6-5.96 45.6-13.18Q41.28-12.65 38.74-11.77 36.2-10.89 35.1-9.64 34.01-8.4 34.01-6.74L34.01-6.74Q34.01-4.52 35.32-3.54 36.64-2.56 38.52-2.56ZM61.49 0L57.54 0 57.54-24.98 60.83-24.98 61.2-20.46 61.3-20.46Q62.62-22.8 64.45-24.21 66.28-25.61 68.4-25.61L68.4-25.61Q70.01-25.61 71.04-25.1L71.04-25.1 70.16-21.73Q69.62-21.9 69.15-21.97 68.67-22.05 67.89-22.05L67.89-22.05Q66.3-22.05 64.55-20.74 62.79-19.43 61.49-16.16L61.49-16.16 61.49 0ZM80.97 0.61L80.97 0.61Q77.85 0.61 75.75-1.21 73.65-3.03 73.65-6.42L73.65-6.42Q73.65-10.52 77.37-12.72 81.1-14.92 89.13-15.82L89.13-15.82Q89.13-17.48 88.68-18.97 88.22-20.46 87.09-21.41 85.95-22.36 83.85-22.36L83.85-22.36Q81.63-22.36 79.69-21.51 77.75-20.65 76.29-19.73L76.29-19.73 74.75-22.36Q76.41-23.51 78.94-24.56 81.46-25.61 84.49-25.61L84.49-25.61Q89.06-25.61 91.07-22.8 93.08-20 93.08-15.41L93.08-15.41 93.08 0 89.79 0 89.47-3.03 89.32-3.03Q87.52-1.54 85.41-0.46 83.29 0.61 80.97 0.61ZM82.05-2.56L82.05-2.56Q83.93-2.56 85.58-3.44 87.22-4.32 89.13-5.96L89.13-5.96 89.13-13.18Q84.81-12.65 82.27-11.77 79.73-10.89 78.63-9.64 77.53-8.4 77.53-6.74L77.53-6.74Q77.53-4.52 78.85-3.54 80.17-2.56 82.05-2.56ZM98.38 11.28L98.38 11.28Q97.33 11.28 96.39 11.07 95.45 10.86 94.79 10.55L94.79 10.55 95.62 7.57Q96.08 7.71 96.73 7.87 97.38 8.03 97.96 8.03L97.96 8.03Q99.92 8.03 100.51 6.69 101.11 5.35 101.11 3.03L101.11 3.03 101.11-24.98 105.07-24.98 105.07 3.08Q105.07 6.91 103.54 9.09 102.02 11.28 98.38 11.28ZM103.07-30.25L103.07-30.25Q101.87-30.25 101.14-30.99 100.41-31.74 100.41-32.98L100.41-32.98Q100.41-34.13 101.14-34.86 101.87-35.6 103.07-35.6L103.07-35.6Q104.26-35.6 104.99-34.86 105.73-34.13 105.73-32.98L105.73-32.98Q105.73-31.74 104.99-30.99 104.26-30.25 103.07-30.25ZM123.67 0.61L123.67 0.61Q120.37 0.61 117.68-0.95 114.98-2.51 113.38-5.44 111.78-8.37 111.78-12.45L111.78-12.45Q111.78-16.53 113.38-19.48 114.98-22.44 117.54-24.02 120.1-25.61 122.96-25.61L122.96-25.61Q127.67-25.61 130.26-22.46 132.85-19.31 132.85-13.89L132.85-13.89Q132.85-12.52 132.7-11.57L132.7-11.57 115.69-11.57Q115.88-7.5 118.18-5 120.47-2.51 124.13-2.51L124.13-2.51Q126.01-2.51 127.58-3.02 129.14-3.52 130.48-4.42L130.48-4.42 131.87-1.95Q130.24-0.83 128.26-0.11 126.28 0.61 123.67 0.61ZM115.64-14.43L115.64-14.43 129.36-14.43Q129.36-18.36 127.7-20.41 126.04-22.46 123.01-22.46L123.01-22.46Q120.3-22.46 118.16-20.36 116.03-18.26 115.64-14.43ZM149.06 0L144.47 0 135.41-24.98 139.49-24.98 144.37-10.6Q144.93-8.74 145.52-6.88 146.1-5.03 146.69-3.22L146.69-3.22 146.91-3.22Q147.47-5.03 148.08-6.88 148.69-8.74 149.23-10.6L149.23-10.6 154.11-24.98 157.97-24.98 149.06 0ZM172.49 0.61L172.49 0.61Q169.46 0.61 166.84-0.93 164.22-2.47 162.62-5.38 161.02-8.3 161.02-12.45L161.02-12.45Q161.02-16.63 162.62-19.57 164.22-22.51 166.84-24.06 169.46-25.61 172.49-25.61L172.49-25.61Q175.57-25.61 178.21-24.06 180.84-22.51 182.44-19.57 184.04-16.63 184.04-12.45L184.04-12.45Q184.04-8.3 182.44-5.38 180.84-2.47 178.21-0.93 175.57 0.61 172.49 0.61ZM172.49-2.66L172.49-2.66Q175.84-2.66 177.91-5.36 179.99-8.06 179.99-12.45L179.99-12.45Q179.99-16.87 177.91-19.59 175.84-22.31 172.49-22.31L172.49-22.31Q170.32-22.31 168.63-21.07 166.95-19.82 166.01-17.61 165.07-15.41 165.07-12.45L165.07-12.45Q165.07-8.06 167.15-5.36 169.22-2.66 172.49-2.66ZM216.55 0.61L216.55 0.61Q212.92 0.61 209.94-0.74 206.96-2.1 204.79-4.42L204.79-4.42 207.06-7.1Q208.86-5.13 211.38-4.03 213.89-2.93 216.6-2.93L216.6-2.93Q220.05-2.93 221.97-4.49 223.9-6.05 223.9-8.59L223.9-8.59Q223.9-10.4 223.15-11.49 222.39-12.57 221.1-13.29 219.8-14.01 218.19-14.72L218.19-14.72 213.31-16.89Q211.75-17.58 210.16-18.65 208.57-19.73 207.51-21.41 206.45-23.1 206.45-25.56L206.45-25.56Q206.45-28.15 207.81-30.15 209.18-32.15 211.56-33.31 213.94-34.47 216.95-34.47L216.95-34.47Q220.05-34.47 222.58-33.3 225.12-32.13 226.86-30.4L226.86-30.4 224.64-27.71Q223.1-29.17 221.14-30.04 219.19-30.91 216.95-30.91L216.95-30.91Q214.06-30.91 212.29-29.52 210.52-28.13 210.52-25.81L210.52-25.81Q210.52-24.15 211.38-23.07 212.23-22 213.53-21.3 214.82-20.61 216.14-20.04L216.14-20.04 220.97-17.97Q222.95-17.14 224.54-15.99 226.12-14.84 227.05-13.15 227.98-11.45 227.98-8.91L227.98-8.91Q227.98-6.25 226.59-4.09 225.2-1.93 222.65-0.66 220.09 0.61 216.55 0.61ZM238.23 0L234.28 0 234.28-24.98 238.23-24.98 238.23 0ZM236.33-30.25L236.33-30.25Q235.13-30.25 234.4-30.99 233.67-31.74 233.67-32.98L233.67-32.98Q233.67-34.13 234.4-34.86 235.13-35.6 236.33-35.6L236.33-35.6Q237.52-35.6 238.26-34.86 238.99-34.13 238.99-32.98L238.99-32.98Q238.99-31.74 238.26-30.99 237.52-30.25 236.33-30.25ZM250.8 10.64L246.85 10.64 246.85-24.98 250.14-24.98 250.51-22.09 250.61-22.09Q252.32-23.49 254.4-24.55 256.49-25.61 258.64-25.61L258.64-25.61Q263.52-25.61 266.06-22.14 268.6-18.68 268.6-12.87L268.6-12.87Q268.6-8.62 267.09-5.6 265.57-2.59 263.1-0.99 260.62 0.61 257.71 0.61L257.71 0.61Q256 0.61 254.24-0.15 252.49-0.9 250.7-2.29L250.7-2.29 250.8 2.1 250.8 10.64ZM257.1-2.71L257.1-2.71Q260.3-2.71 262.41-5.43 264.52-8.15 264.52-12.82L264.52-12.82Q264.52-17.04 262.94-19.68 261.35-22.31 257.71-22.31L257.71-22.31Q256.08-22.31 254.39-21.4 252.71-20.48 250.8-18.75L250.8-18.75 250.8-5.4Q252.58-3.93 254.21-3.32 255.83-2.71 257.1-2.71ZM281.83 0.61L281.83 0.61Q279.05 0.61 276.65-0.33 274.26-1.27 272.55-2.93L272.55-2.93 274.41-5.25Q276-3.93 277.79-3.2 279.58-2.47 281.98-2.47L281.98-2.47Q284.49-2.47 285.76-3.67 287.03-4.88 287.03-6.54L287.03-6.54Q287.03-7.86 286.2-8.73 285.37-9.59 284.06-10.21 282.76-10.82 281.32-11.33L281.32-11.33Q279.46-12.01 277.78-12.92 276.09-13.82 275.02-15.19 273.94-16.55 273.94-18.6L273.94-18.6Q273.94-21.53 276.17-23.57 278.39-25.61 282.44-25.61L282.44-25.61Q284.76-25.61 286.73-24.82 288.69-24.02 290.13-22.83L290.13-22.83 288.32-20.51Q287.01-21.46 285.6-21.98 284.2-22.51 282.49-22.51L282.49-22.51Q280.02-22.51 278.89-21.37 277.75-20.24 277.75-18.8L277.75-18.8Q277.75-17.02 279.27-16.11 280.78-15.21 283.05-14.36L283.05-14.36Q285.03-13.67 286.81-12.78 288.59-11.89 289.72-10.47 290.84-9.06 290.84-6.74L290.84-6.74Q290.84-3.71 288.52-1.55 286.2 0.61 281.83 0.61Z" opacity="1" transform="matrix(1,0,0,1,0,0)" fill="#fed8e5" class="wordmark-text-0" data-fill-palette-color="primary" id="text-0"></path></svg></g></svg></g><g transform="matrix(1,0,0,1,0,35.726778024357245)"><svg viewBox="0 0 192.00000000000003 9.664952638700948" height="9.664952638700948" width="192.00000000000003"><g transform="matrix(1,0,0,1,0,0)"><svg width="192.00000000000003" viewBox="2.05 -35.5 717.1500000000001 36.1" height="9.664952638700948" data-palette-color="#fed8e5"><path d="M18.95-35L18.95-35 9.5-35 2.05 0 12.5 0Q16.05 0 18.65-1.13 21.25-2.25 22.88-4.48 24.5-6.7 25.2-10L25.2-10 28.1-23.75Q28.85-27.15 28.08-29.68 27.3-32.2 25.03-33.6 22.75-35 18.95-35ZM12.15-2.5L12.15-2.5 5.4-2.5 11.75-32.5 18.9-32.5Q21.85-32.5 23.45-31.4 25.05-30.3 25.5-28.48 25.95-26.65 25.45-24.5L25.45-24.5 22.25-9.5Q21.9-7.8 21.1-6.48 20.3-5.15 19.03-4.28 17.75-3.4 16.05-2.95 14.35-2.5 12.15-2.5ZM68.62-23L68.62-23 69.32-25.4Q69.32-25.4 68.67-25.53 68.02-25.65 67.07-25.55L67.07-25.55Q64.37-25.45 62.27-24.85 60.17-24.25 58.12-23.35L58.12-23.35 58.47-25 55.62-25 50.32 0 53.12 0 57.47-20.45Q58.27-20.95 59.37-21.4 60.47-21.85 61.72-22.2 62.97-22.55 64.22-22.8 65.47-23.05 66.52-23.05L66.52-23.05Q67.37-23.15 68-23.08 68.62-23 68.62-23ZM96-25.05L90.65 0 93.5 0 98.8-25.05 96-25.05ZM99.65-35.5L99.65-35.5Q99-35.5 98.37-35 97.75-34.5 97.6-33.8L97.6-33.8Q97.45-33.15 97.85-32.65 98.25-32.15 98.95-32.15L98.95-32.15Q99.6-32.15 100.2-32.65 100.8-33.15 100.95-33.8L100.95-33.8Q101.1-34.5 100.72-35 100.35-35.5 99.65-35.5ZM139.87-17.1L139.87-17.1 136.22 0 138.97 0 142.62-17.25Q142.97-18.8 142.87-20.1 142.77-21.4 142.27-22.4 141.77-23.4 140.85-24.08 139.92-24.75 138.62-25.1 137.32-25.45 135.67-25.45L135.67-25.45Q134.42-25.45 133.15-25.2 131.87-24.95 130.65-24.48 129.42-24 128.27-23.3L128.27-23.3 128.67-25 125.82-25 120.52 0 123.32 0 127.87-21.25Q129.02-21.85 130.15-22.23 131.27-22.6 132.37-22.78 133.47-22.95 134.57-22.95L134.57-22.95Q135.77-22.95 136.87-22.68 137.97-22.4 138.77-21.73 139.57-21.05 139.9-19.93 140.22-18.8 139.87-17.1ZM184.64 0L177.44-17.6 186.24-24.05 184.64-25.95 172.64-16.75 176.54-35 173.74-35 166.29 0 169.09 0 171.99-13.65 175.09-15.85 181.29 0 184.64 0ZM255.34-35L247.89 0 265.94 0 266.49-2.5 251.24-2.5 258.14-35 255.34-35ZM297.96-25.05L292.61 0 295.46 0 300.76-25.05 297.96-25.05ZM301.61-35.5L301.61-35.5Q300.96-35.5 300.34-35 299.71-34.5 299.56-33.8L299.56-33.8Q299.41-33.15 299.81-32.65 300.21-32.15 300.91-32.15L300.91-32.15Q301.56-32.15 302.16-32.65 302.76-33.15 302.91-33.8L302.91-33.8Q303.06-34.5 302.69-35 302.31-35.5 301.61-35.5ZM341.09 0L333.89-17.6 342.69-24.05 341.09-25.95 329.09-16.75 332.99-35 330.19-35 322.74 0 325.54 0 328.44-13.65 331.54-15.85 337.74 0 341.09 0ZM370.71-6.7L370.71-6.7 371.36-9.8 386.76-10.6 388.16-17.1Q388.76-19.85 387.96-21.7 387.16-23.55 385.29-24.53 383.41-25.5 380.66-25.5L380.66-25.5Q377.96-25.5 375.79-24.53 373.61-23.55 372.16-21.65 370.71-19.75 370.11-16.95L370.11-16.95 368.06-7.1Q367.61-5 367.94-3.53 368.26-2.05 369.19-1.15 370.11-0.25 371.59 0.18 373.06 0.6 374.96 0.6L374.96 0.6Q376.86 0.6 379.19-0.03 381.51-0.65 383.66-1.75L383.66-1.75 383.01-3.9Q380.86-2.95 378.99-2.38 377.11-1.8 375.21-1.8L375.21-1.8Q374.01-1.8 373.06-2.08 372.11-2.35 371.49-2.93 370.86-3.5 370.66-4.45 370.46-5.4 370.71-6.7ZM385.41-17.45L385.41-17.45 384.51-13.1 371.96-12.55 372.86-16.9Q373.36-18.9 374.39-20.28 375.41-21.65 376.99-22.4 378.56-23.15 380.56-23.15L380.56-23.15Q382.31-23.15 383.54-22.45 384.76-21.75 385.26-20.48 385.76-19.2 385.41-17.45ZM467.71-17.5L467.71-17.5Q466.71-18.2 465.41-18.8 464.11-19.4 462.63-19.78 461.16-20.15 459.51-20.15L459.51-20.15Q458.01-20.15 456.53-19.75 455.06-19.35 453.81-18.48 452.56-17.6 451.63-16.15 450.71-14.7 450.26-12.6L450.26-12.6 449.36-8.45Q448.81-5.7 449.31-3.9 449.81-2.1 451.13-1.13 452.46-0.15 454.43 0.2 456.41 0.55 458.81 0.5L458.81 0.5Q459.56 0.5 460.58 0.45 461.61 0.4 462.71 0.33 463.81 0.25 464.76 0.18 465.71 0.1 466.28 0.05 466.86 0 466.81 0L466.81 0 469.91-14.4Q470.51-17.4 470.48-19.53 470.46-21.65 469.58-22.95 468.71-24.25 466.81-24.85 464.91-25.45 461.81-25.45L461.81-25.45 461.26-23.3Q462.71-23.3 464.06-23.1 465.41-22.9 466.36-22.28 467.31-21.65 467.71-20.53 468.11-19.4 467.71-17.5ZM467.21-15.15L467.21-15.15 464.51-2.3Q464.51-2.3 464.26-2.27 464.01-2.25 463.56-2.23 463.11-2.2 462.43-2.13 461.76-2.05 460.93-2 460.11-1.95 459.11-1.9L459.11-1.9Q456.56-1.8 455.01-2.18 453.46-2.55 452.73-3.43 452.01-4.3 451.91-5.65 451.81-7 452.21-8.8L452.21-8.8 453.01-12.5Q453.36-14.2 454.06-15.23 454.76-16.25 455.58-16.8 456.41-17.35 457.26-17.55 458.11-17.75 458.76-17.75L458.76-17.75Q460.36-17.75 461.83-17.4 463.31-17.05 464.68-16.45 466.06-15.85 467.21-15.15ZM538.35-35L530.9 0 548.95 0 549.5-2.5 534.25-2.5 541.15-35 538.35-35ZM595.78-9.25L595.78-9.25 597.23-15.8Q598.18-20.4 596.38-23 594.58-25.6 590.13-25.6L590.13-25.6Q587.13-25.6 584.8-24.48 582.48-23.35 580.95-21.18 579.43-19 578.73-15.8L578.73-15.8 577.28-9.25Q576.73-6.55 577.3-4.35 577.88-2.15 579.73-0.83 581.58 0.5 584.68 0.5L584.68 0.5Q589.28 0.5 592.08-2.2 594.88-4.9 595.78-9.25ZM594.38-15.8L594.38-15.8 592.88-8.75Q592.48-6.7 591.45-5.18 590.43-3.65 588.85-2.83 587.28-2 585.18-2L585.18-2Q583.18-2 581.88-2.85 580.58-3.7 580.1-5.23 579.63-6.75 580.03-8.75L580.03-8.75 581.53-15.8Q582.03-18.2 583.1-19.83 584.18-21.45 585.83-22.28 587.48-23.1 589.68-23.1L589.68-23.1Q591.88-23.1 593.08-22.28 594.28-21.45 594.6-19.83 594.93-18.2 594.38-15.8ZM640.7-21.65L640.7-21.65 641.9-23.9Q640.45-24.65 638.78-25.08 637.1-25.5 635.35-25.5L635.35-25.5Q632.05-25.5 629.78-24.25 627.5-23 626.15-20.85 624.8-18.7 624.2-15.95L624.2-15.95 622.65-8.7Q621.95-5.25 622.88-3.2 623.8-1.15 625.98-0.28 628.15 0.6 631.15 0.55L631.15 0.55Q632.6 0.5 634.08 0.3 635.55 0.1 636.95-0.25L636.95-0.25 636.95-2.75Q636.95-2.75 636.45-2.68 635.95-2.6 635.1-2.45 634.25-2.3 633.23-2.18 632.2-2.05 631.15-2.05L631.15-2.05Q629.3-2.05 628.03-2.45 626.75-2.85 626.08-3.7 625.4-4.55 625.28-5.95 625.15-7.35 625.55-9.3L625.55-9.3 626.85-15.3Q627.3-17.5 628.38-19.23 629.45-20.95 631.15-21.95 632.85-22.95 635.25-22.9L635.25-22.9Q636.65-22.85 638.13-22.53 639.6-22.2 640.7-21.65ZM682.57-17.5L682.57-17.5Q681.57-18.2 680.27-18.8 678.97-19.4 677.5-19.78 676.02-20.15 674.37-20.15L674.37-20.15Q672.87-20.15 671.4-19.75 669.92-19.35 668.67-18.48 667.42-17.6 666.5-16.15 665.57-14.7 665.12-12.6L665.12-12.6 664.22-8.45Q663.67-5.7 664.17-3.9 664.67-2.1 666-1.13 667.32-0.15 669.3 0.2 671.27 0.55 673.67 0.5L673.67 0.5Q674.42 0.5 675.45 0.45 676.47 0.4 677.57 0.33 678.67 0.25 679.62 0.18 680.57 0.1 681.15 0.05 681.72 0 681.67 0L681.67 0 684.77-14.4Q685.37-17.4 685.35-19.53 685.32-21.65 684.45-22.95 683.57-24.25 681.67-24.85 679.77-25.45 676.67-25.45L676.67-25.45 676.12-23.3Q677.57-23.3 678.92-23.1 680.27-22.9 681.22-22.28 682.17-21.65 682.57-20.53 682.97-19.4 682.57-17.5ZM682.07-15.15L682.07-15.15 679.37-2.3Q679.37-2.3 679.12-2.27 678.87-2.25 678.42-2.23 677.97-2.2 677.3-2.13 676.62-2.05 675.8-2 674.97-1.95 673.97-1.9L673.97-1.9Q671.42-1.8 669.87-2.18 668.32-2.55 667.6-3.43 666.87-4.3 666.77-5.65 666.67-7 667.07-8.8L667.07-8.8 667.87-12.5Q668.22-14.2 668.92-15.23 669.62-16.25 670.45-16.8 671.27-17.35 672.12-17.55 672.97-17.75 673.62-17.75L673.62-17.75Q675.22-17.75 676.7-17.4 678.17-17.05 679.55-16.45 680.92-15.85 682.07-15.15ZM716.45-35L709 0 711.75 0 719.2-35 716.45-35Z" opacity="1" transform="matrix(1,0,0,1,0,0)" fill="#fed8e5" class="slogan-text-1" data-fill-palette-color="secondary" id="text-1"></path></svg></g></svg></g></svg></g></svg></g><g transform="matrix(1,0,0,1,60.379833961068606,0)"><svg viewBox="0 0 71.24033207786282 82.80541074477729" height="82.80541074477729" width="71.24033207786282"><g><svg xmlns="http://www.w3.org/2000/svg" xmlns:xlink="http://www.w3.org/1999/xlink" version="1.1" x="0" y="0" viewBox="102.63100000000009 73.76100000000001 361.0040000284082 419.609" enable-background="new 0 0 566.93 566.93" xml:space="preserve" height="82.80541074477729" width="71.24033207786282" class="icon-icon-0" data-fill-palette-color="accent" id="icon-0"><g fill="#fed8e5" data-fill-palette-color="accent"><path d="M404.787 229.549c-7.225 0-14.053-1.592-20.251-4.358v219.915c0 5.06-4.104 9.163-9.163 9.163-5.053 0-9.163-4.104-9.163-9.163V224.271c0-1.182 0.247-2.314 0.665-3.368-7.988 5.42-17.576 8.646-27.949 8.646-6.906 0-13.466-1.458-19.444-4.005v219.562c0 5.06-4.104 9.163-9.171 9.163-5.059 0-9.155-4.104-9.155-9.163V224.271c0-1.5 0.396-2.901 1.04-4.161-8.201 5.915-18.234 9.439-29.131 9.439-6.595 0-12.864-1.33-18.616-3.644v219.201c0 5.06-4.118 9.163-9.17 9.163-5.059 0-9.163-4.104-9.163-9.163V224.271c0-0.637 0.071-1.26 0.198-1.861-7.507 4.5-16.253 7.14-25.643 7.14-7.727 0-15.015-1.804-21.553-4.939h-21.708c-35.718 0.05-64.729 29.067-64.779 64.779v100.087c0.05 35.712 29.061 64.723 64.779 64.772h23.647c5.752 22.408 26.124 39.121 50.267 39.121h138.013c28.572 0 51.943-23.371 51.943-51.95v-203.98c0-4.96-0.743-9.744-2.052-14.293C421.995 227.207 413.674 229.549 404.787 229.549zM189.379 428.591h-21.971c-21.433-0.035-39.086-17.689-39.122-39.115V289.389c0.036-21.433 17.689-39.08 39.122-39.115h21.971V428.591z" fill="#fed8e5" data-fill-palette-color="accent"></path><g fill="#fed8e5" data-fill-palette-color="accent"><path d="M404.787 215.815c-11.781 0-23.237-3.556-32.938-10.125-19.373 13.136-46.452 13.143-65.847 0-18.903 12.818-44.97 13.231-64.135 1.16-9.329 5.884-19.993 8.965-31.197 8.965-32.45 0-58.85-26.4-58.85-58.85 0-31.498 24.872-57.292 56.008-58.778 7.925-14.831 23.548-24.426 40.647-24.426 9.743 0 19.023 3.007 26.792 8.58 8.534-5.572 18.521-8.58 28.795-8.58 18.602 0 35.436 9.556 44.994 25.239 8.194 1.426 15.928 4.561 22.806 9.238 9.701-6.566 21.156-10.122 32.924-10.122 32.449 0 58.849 26.4 58.849 58.849C463.636 189.415 437.236 215.815 404.787 215.815L404.787 215.815zM371.849 185.708c2.081 0 4.154 0.732 5.824 2.193 7.535 6.602 17.165 10.239 27.114 10.239 22.706 0 41.174-18.472 41.174-41.174s-18.468-41.174-41.174-41.174c-9.941 0-19.572 3.637-27.114 10.242-3.34 2.915-8.314 2.918-11.654-0.003-6.595-5.792-14.668-9.273-23.35-10.065-3.064-0.279-5.76-2.133-7.118-4.893-5.973-12.114-18.037-19.635-31.487-19.635-8.548 0-16.806 3.138-23.248 8.838-3.509 3.103-8.827 2.929-12.131-0.396-5.395-5.445-12.57-8.441-20.208-8.441-11.866 0-22.583 7.504-26.668 18.673-1.334 3.648-4.896 6.036-8.767 5.788-1.235-0.071-1.797-0.106-2.37-0.106-22.703 0-41.174 18.471-41.174 41.174s18.472 41.174 41.174 41.174c9.425 0 18.301-3.117 25.674-9.022 3.227-2.583 7.815-2.583 11.042 0 7.38 5.901 16.26 9.022 25.678 9.022 9.956 0 19.585-3.634 27.115-10.239 3.325-2.922 8.321-2.922 11.646 0 7.528 6.605 17.151 10.239 27.101 10.239 9.948 0 19.571-3.634 27.093-10.235C367.688 186.439 369.769 185.708 371.849 185.708L371.849 185.708z" fill="#fed8e5" data-fill-palette-color="accent"></path></g><line x1="266.88" y1="133.644" x2="266.88" y2="133.644" fill="#fed8e5" data-fill-palette-color="accent"></line><line x1="318.88" y1="137.231" x2="320.104" y2="137.231" fill="#fed8e5" data-fill-palette-color="accent"></line></g></svg></g></svg></g><g></g></svg></g></svg></g></svg></g></svg></g><defs></defs></svg><rect width="320" height="360" fill="none" stroke="none" visibility="hidden"></rect></g></svg></g></svg>